HIERARCHY
ROOT Hips
{
	OFFSET -0.001795 -0.223333 0.028219
	CHANNELS 6 Xposition Yposition Zposition Zrotation Yrotation Xrotation 
	JOINT LeftUpLeg
	{
		OFFSET 0.069520 -0.091406 -0.006815
		CHANNELS 3 Zrotation Yrotation Xrotation
		JOINT LeftLeg
		{
			OFFSET 0.034277 -0.375199 -0.004496
			CHANNELS 3 Zrotation Yrotation Xrotation
			JOINT LeftFoot
			{
				OFFSET -0.013596 -0.397961 -0.043693
				CHANNELS 3 Zrotation Yrotation Xrotation
				JOINT LeftToe
				{
					OFFSET 0.026358 -0.055791 0.119288
					CHANNELS 3 Zrotation Yrotation Xrotation
					End Site
					{
						OFFSET 0.000000 0.000000 0.000000
					}
				}
			}
		}
	}
	JOINT RightUpLeg
	{
		OFFSET -0.067670 -0.090522 -0.004320
		CHANNELS 3 Zrotation Yrotation Xrotation
		JOINT RightLeg
		{
			OFFSET -0.038290 -0.382569 -0.008850
			CHANNELS 3 Zrotation Yrotation Xrotation
			JOINT RightFoot
			{
				OFFSET 0.015774 -0.398415 -0.042312
				CHANNELS 3 Zrotation Yrotation Xrotation
				JOINT RightToe
				{
					OFFSET -0.025372 -0.048144 0.123348
					CHANNELS 3 Zrotation Yrotation Xrotation
					End Site
					{
						OFFSET 0.000000 0.000000 0.000000
					}
				}
			}
		}
	}
	JOINT Spine
	{
		OFFSET -0.002533 0.108963 -0.026696
		CHANNELS 3 Zrotation Yrotation Xrotation
		JOINT Spine1
		{
			OFFSET 0.005487 0.135180 0.001092
			CHANNELS 3 Zrotation Yrotation Xrotation
			JOINT Spine2
			{
				OFFSET 0.001457 0.052922 0.025425
				CHANNELS 3 Zrotation Yrotation Xrotation
				JOINT Neck
				{
					OFFSET -0.002778 0.213870 -0.042857
					CHANNELS 3 Zrotation Yrotation Xrotation
					JOINT Head
					{
						OFFSET 0.005152 0.064970 0.051349
						CHANNELS 3 Zrotation Yrotation Xrotation
						End Site
						{
							OFFSET 0.000000 0.000000 0.000000
						}
					}
				}
				JOINT LeftShoulder
				{
					OFFSET 0.078845 0.121749 -0.034090
					CHANNELS 3 Zrotation Yrotation Xrotation
					JOINT LeftArm
					{
						OFFSET 0.090977 0.030469 -0.008868
						CHANNELS 3 Zrotation Yrotation Xrotation
						JOINT LeftForeArm
						{
							OFFSET 0.259612 -0.012772 -0.027456
							CHANNELS 3 Zrotation Yrotation Xrotation
							JOINT LeftHand
							{
								OFFSET 0.249234 0.008986 -0.001171
								CHANNELS 3 Zrotation Yrotation Xrotation
								End Site
								{
									OFFSET 0.000000 0.000000 0.000000
								}
							}
						}
					}
				}
				JOINT RightShoulder
				{
					OFFSET -0.081759 0.118833 -0.038615
					CHANNELS 3 Zrotation Yrotation Xrotation
					JOINT RightArm
					{
						OFFSET -0.096012 0.032551 -0.009143
						CHANNELS 3 Zrotation Yrotation Xrotation
						JOINT RightForeArm
						{
							OFFSET -0.253742 -0.013329 -0.021401
							CHANNELS 3 Zrotation Yrotation Xrotation
							JOINT RightHand
							{
								OFFSET -0.255298 0.007772 -0.005559
								CHANNELS 3 Zrotation Yrotation Xrotation
								End Site
								{
									OFFSET 0.000000 0.000000 0.000000
								}
							}
						}
					}
				}
			}
		}
	}
}
MOTION
Frames: 8
Frame Time: 0.050000
0.044778 0.948342 -0.004216 -5.227998 -28.578481 11.466435 4.126218 0.263750 -21.971896 -2.548197 0.947865 11.280943 10.729084 18.245956 15.924429 0.000000 0.000000 0.000000 -1.525095 2.160675 -17.701808 4.552801 0.119614 8.403925 -5.162477 -18.248459 14.774964 0.000000 0.000000 0.000000 -2.602642 6.002713 49.568114 -7.009439 1.612476 -24.399083 -7.253914 -3.626418 26.817424 6.103085 -4.193157 -23.862457 0.000000 0.000000 0.000000 -7.977213 -33.507101 16.559391 -6.354681 -41.866108 -1.131495 60.343426 -18.210996 -7.677821 0.000000 0.000000 0.000000 23.991410 8.255876 -1.866891 61.662038 3.209975 -5.896130 29.590143 58.368074 16.321239 0.000000 0.000000 0.000000 
0.045273 0.948134 -0.004100 -5.393324 -29.212167 11.537864 4.225319 0.317454 -21.833392 -2.543692 0.962186 11.210941 11.071591 18.685346 16.025624 0.000000 0.000000 0.000000 -1.485885 2.184420 -17.776263 4.481521 0.144560 8.521301 -4.612703 -17.407565 14.504784 0.000000 0.000000 0.000000 -3.131863 6.507284 49.803198 -6.585374 1.487773 -24.794215 -7.387708 -3.581800 27.007273 5.972945 -4.155052 -23.810066 0.000000 0.000000 0.000000 -7.460757 -33.583421 16.377166 -5.339412 -41.510029 -1.365227 58.870287 -14.578028 -5.601024 0.000000 0.000000 0.000000 24.648307 8.635902 -1.806165 61.854541 2.994023 -5.975742 30.304663 59.125567 16.993649 0.000000 0.000000 0.000000 
0.045940 0.948055 -0.003951 -5.569099 -29.602773 11.690671 4.309286 0.365042 -21.847479 -2.503665 0.962653 11.193353 11.283868 18.950424 16.101199 0.000000 0.000000 0.000000 -1.386613 2.193513 -17.763510 4.387836 0.153108 8.372430 -4.244756 -16.835431 14.332949 0.000000 0.000000 0.000000 -3.057316 6.702485 50.345680 -6.839630 1.525402 -25.130040 -7.389458 -4.110539 26.940986 5.602013 -4.011122 -23.920944 0.000000 0.000000 0.000000 -7.080177 -33.677423 16.345308 -4.687236 -41.574672 -1.478748 57.514367 -12.645854 -4.467217 0.000000 0.000000 0.000000 25.018280 9.215903 -1.748864 62.331025 3.056970 -5.900467 30.204859 59.473681 16.912745 0.000000 0.000000 0.000000 
0.046682 0.947792 -0.003783 -5.795448 -30.133199 11.989205 4.508622 0.468968 -22.073107 -2.602508 1.020288 11.352730 11.558336 19.288683 16.190303 0.000000 0.000000 0.000000 -1.327417 2.265974 -18.105105 4.471713 0.167532 8.570333 -3.971526 -16.425172 14.156686 0.000000 0.000000 0.000000 -3.555564 7.108095 50.280004 -6.358723 1.404019 -25.199943 -7.588197 -3.977323 27.000704 5.606966 -3.970015 -24.455878 0.000000 0.000000 0.000000 -6.745776 -33.658427 16.200689 -5.319996 -42.110157 -1.298223 56.946871 -12.410459 -4.248553 0.000000 0.000000 0.000000 25.695579 9.856664 -1.516235 62.184041 3.404879 -5.606268 29.494247 60.474266 16.854019 0.000000 0.000000 0.000000 
0.047456 0.947717 -0.003642 -5.995020 -30.470889 12.348221 4.693257 0.574446 -22.440216 -2.711577 1.079965 11.561605 11.721301 19.465376 16.298401 0.000000 0.000000 0.000000 -1.200902 2.316681 -18.306069 4.461640 0.167405 8.408540 -3.829546 -16.222009 14.061435 0.000000 0.000000 0.000000 -3.567811 7.308174 50.615834 -6.574788 1.444689 -25.443939 -7.625253 -4.345976 27.097984 5.613233 -3.983508 -24.885633 0.000000 0.000000 0.000000 -6.563542 -33.758880 16.254915 -6.918865 -42.569497 -0.841405 57.102017 -13.403035 -4.636477 0.000000 0.000000 0.000000 25.706032 10.162587 -1.527216 62.666582 3.883627 -5.371885 28.882989 60.981318 16.532637 0.000000 0.000000 0.000000 
0.048175 0.947542 -0.003448 -6.017562 -30.670085 12.526159 4.720935 0.615933 -22.661903 -2.822038 1.126120 11.658630 11.819962 19.580166 16.342934 0.000000 0.000000 0.000000 -1.489784 2.308301 -18.330650 4.561704 0.154254 8.244207 -3.236234 -15.220330 13.785712 0.000000 0.000000 0.000000 -3.665124 7.489859 50.842905 -6.611066 1.453286 -25.471220 -7.621163 -4.481102 27.175214 5.702787 -4.012863 -25.281719 0.000000 0.000000 0.000000 -7.357228 -33.953233 16.737598 -8.292287 -43.079317 -0.513548 57.138718 -15.391095 -5.585922 0.000000 0.000000 0.000000 25.505668 10.453541 -1.361001 63.263104 4.565873 -5.115131 28.732333 61.696749 16.666483 0.000000 0.000000 0.000000 
0.048744 0.947590 -0.003252 -6.205763 -30.991483 12.747249 4.934666 0.698291 -22.678257 -2.988729 1.173832 11.527382 11.987571 19.775728 16.430408 0.000000 0.000000 0.000000 -1.422804 2.341881 -18.458183 4.623966 0.147879 8.085430 -3.074293 -15.087143 13.985833 0.000000 0.000000 0.000000 -3.819210 7.732060 51.035949 -6.450039 1.416796 -25.538154 -7.852084 -4.497946 27.118911 6.004014 -4.101455 -25.908967 0.000000 0.000000 0.000000 -7.624735 -33.906514 16.865028 -10.753209 -43.387144 0.164823 58.040983 -17.880027 -6.817482 0.000000 0.000000 0.000000 25.355215 10.892029 -1.102508 63.734297 5.221556 -4.819341 28.229402 62.357608 16.561623 0.000000 0.000000 0.000000 
0.049058 0.947470 -0.003098 -6.294037 -30.984028 12.977237 4.886803 0.715056 -22.944943 -2.810246 1.132301 11.636600 11.991803 19.774710 16.410538 0.000000 0.000000 0.000000 -1.459022 2.344009 -18.469967 4.810114 0.122682 7.854721 -3.090635 -15.041280 13.806086 0.000000 0.000000 0.000000 -3.692562 7.772626 51.414232 -6.586611 1.444930 -25.751053 -7.870636 -4.922512 27.082986 6.044410 -4.116496 -26.287764 0.000000 0.000000 0.000000 -8.225761 -33.835518 17.183514 -12.159700 -43.634587 0.543696 58.630967 -20.178932 -7.993946 0.000000 0.000000 0.000000 24.941911 11.165447 -0.994935 64.414873 5.876129 -4.569356 27.726612 62.274386 16.139618 0.000000 0.000000 0.000000 
